<svg xmlns="http://www.w3.org/2000/svg" xmlns:xlink="http://www.w3.org/1999/xlink" width="54.103" height="52.819" viewBox="0 0 54.103 52.819"><defs><style>.a{fill:#e8e6ea;}.b{fill:url(#a);}.c,.e{fill:none;stroke:#30304d;stroke-miterlimit:10;stroke-width:6px;}.d{fill:#d2e1f1;}.e{stroke-linecap:round;stroke-linejoin:round;}.f{fill:#020303;}.g{fill:#3f4151;}.h{fill:#30304d;}.i,.j{fill:#fefefe;}.i{opacity:0.25;}</style><linearGradient id="a" x1="0.136" y1="0.306" x2="1.047" y2="0.939" gradientUnits="objectBoundingBox"><stop offset="0" stop-color="#01bbee"/><stop offset="1" stop-color="#062898"/></linearGradient></defs><g transform="translate(2.397 3.458)"><path class="a" d="M21.129,16.511C12.346,7.316,0,10.439,0,10.439,7.026,4.26,6.888,0,6.888,0H40.946S42.673,5.25,48.7,10.439c0,0-12.225-3.123-21.008,6.073Z" transform="translate(0 26.48)"/><path class="b" d="M24.049,2.975A3.547,3.547,0,0,1,20.546,0h0c-8.739,1.466-5.606,8.415-10.1,10.926h0c-1.29.722-2.7.678-4.719-.081h0C3.59,10.042.327,8.84.015,15.23h0a12.037,12.037,0,0,0,.1,2.25h0c.55,4,3.275,8.533,11.054,12.051h-.041l.008.031h.042l.008.028,12.865-.012,12.866.012.008-.028h.044l.008-.031h-.041c9.284-4.2,11.37-9.841,11.152-14.3h0c-.312-6.39-3.575-5.188-5.714-4.384h0c-2.026.758-3.429.8-4.72.081h0a6.122,6.122,0,0,1-2.615-3.409h0a5.679,5.679,0,0,1-3.626.975h0c1.009-.033,2.112-1.768,2.84-3.166h0a10.778,10.778,0,0,0-1.232-2.5h0C32.028,1.41,30.461.309,27.555,0h0a3.551,3.551,0,0,1-3.506,2.975" transform="translate(0.603 0)"/><path class="c" d="M36.934,29.53h.041l-.008.031h-.043l-.008.028-12.866-.012-12.865.012-.008-.028h-.042l-.008-.031h.041C3.387,26.012.663,21.48.112,17.48a12.037,12.037,0,0,1-.1-2.25c.312-6.39,3.575-5.188,5.714-4.384,2.023.759,3.429.8,4.719.081C14.94,8.416,11.808,1.466,20.546,0a3.547,3.547,0,0,0,3.5,2.975A3.55,3.55,0,0,0,27.554,0c2.907.309,4.474,1.41,5.464,2.823a10.774,10.774,0,0,1,1.232,2.5c-.728,1.4-1.831,3.133-2.84,3.166a5.679,5.679,0,0,0,3.626-.975,6.122,6.122,0,0,0,2.615,3.409c1.291.722,2.694.678,4.72-.081,2.139-.8,5.4-2.005,5.714,4.384C48.3,19.689,46.218,25.332,36.934,29.53Z" transform="translate(0.603 0)"/><path class="d" d="M22.954,21s-.023.124-.073.346a21.057,21.057,0,0,1-1.392,4.078c-1.31,2.811-3.637,5.908-7.518,5.817q-.951-.023-1.9,0c-3.883.091-6.209-3.005-7.518-5.817A21.119,21.119,0,0,1,3.16,21.343C3.11,21.121,3.087,21,3.087,21-.534,20.932.032,15.174.032,15.174V5.432a3.879,3.879,0,0,1,.545-1.99C4.767.8,13.8-2.9,25.628,3.746a3.914,3.914,0,0,1,.381,1.686v9.742s.566,5.757-3.055,5.823" transform="translate(11.258 15.121)"/><path class="e" d="M22.954,21s-.023.124-.073.346a21.057,21.057,0,0,1-1.392,4.078c-1.31,2.811-3.637,5.908-7.518,5.817q-.951-.023-1.9,0c-3.883.091-6.209-3.005-7.518-5.817A21.119,21.119,0,0,1,3.16,21.343C3.11,21.121,3.087,21,3.087,21-.534,20.932.032,15.174.032,15.174V5.432a3.879,3.879,0,0,1,.545-1.99C4.767.8,13.8-2.9,25.628,3.746a3.914,3.914,0,0,1,.381,1.686v9.742S26.575,20.932,22.954,21Z" transform="translate(11.258 15.121)"/><path class="f" d="M19.722,4.732A21.072,21.072,0,0,1,18.33,8.809q-.3-.095-.593-.215c-.991-.409-4.942-3.108-7.019-3.942A6.136,6.136,0,0,0,9,4.653,20.3,20.3,0,0,0,6.738,5.806c-1.931,1.1-4.062,2.5-4.753,2.788-.194.081-.393.152-.594.215A21.117,21.117,0,0,1,0,4.732l.042-.038C1.075,3.757,2.36,2.48,2.36,2.48,4.763-.488,7.265-.193,8.687.349A5.018,5.018,0,0,1,9.861.97s3.865-2.98,7.5,1.51c0,0,1.285,1.277,2.317,2.213l.042.038" transform="translate(14.418 32.25)"/><path class="f" d="M17.853,11.576l.062,1.45-1.354-.213a5.823,5.823,0,0,1-6.214,1.822c-3.889-1.2-3.425-6.06-3.425-6.06S1.318,5.161,0,.249C.32.194,1.017.04,1.35,0A14.622,14.622,0,0,0,7.739,7.154l.28.461A1.2,1.2,0,0,1,9.538,7.14l6.53,2.937c.541.243,1.261.5,1.1,1.067l-.439.349Z" transform="translate(19.028 15.371)"/><path class="g" d="M17.475,11.092v1.016l-2.12-.553a5,5,0,0,1-5.8,1.924c-3.889-1.2-2.892-5.6-2.892-5.6S1.318,5.056,0,.143C.32.088.646.04.979,0a13.116,13.116,0,0,0,6,6.871l.249-.413a1.2,1.2,0,0,1,1.519-.475l6.53,2.937a1.2,1.2,0,0,1,.662,1.416l-.083.3Z" transform="translate(20.03 15.284)"/><path class="h" d="M7.517,1.05s-.75.859-4.607-.921C1.316-.607,0,2.044,0,2.044a3.3,3.3,0,0,1,2.648-.762C4.093,1.6,6.474,3.017,7.517,1.05" transform="translate(14.26 22.17)"/><path class="h" d="M3.027,1.513A1.514,1.514,0,0,1,1.513,3.027,1.5,1.5,0,0,1,.6,2.716L.532,2.664a1.49,1.49,0,0,1-.363-.456,1.513,1.513,0,1,1,2.858-.7" transform="translate(17.241 23.083)"/><path class="e" d="M1.48,5.946C.92,6.22-.214,6,.035,4.873.235,3.976,1.44,3.45,1.8,3.28A40.832,40.832,0,0,1,10.22.306c.32-.055.646-.1.979-.143,4.349-.532,9.737.131,15.877,3.584" transform="translate(9.811 15.121)"/><path class="i" d="M33.019,2.823C27.357,11.261,12.1,17.671,2.933,17.671A20.76,20.76,0,0,1,.112,17.48a12.038,12.038,0,0,1-.1-2.25c.312-6.39,3.575-5.187,5.714-4.384,2.023.759,3.429.8,4.719.081C14.94,8.415,11.808,1.466,20.546,0a3.547,3.547,0,0,0,3.5,2.975A3.551,3.551,0,0,0,27.555,0c2.907.309,4.474,1.41,5.464,2.823" transform="translate(0.603 0)"/><path class="e" d="M.112,17.48a12.038,12.038,0,0,1-.1-2.25c.312-6.39,3.575-5.187,5.714-4.384,2.023.759,3.429.8,4.719.081C14.94,8.415,11.808,1.466,20.546,0a3.547,3.547,0,0,0,3.5,2.975A3.551,3.551,0,0,0,27.555,0c2.907.309,4.474,1.41,5.464,2.823a10.77,10.77,0,0,1,1.232,2.5c-.728,1.4-1.831,3.133-2.84,3.166a5.678,5.678,0,0,0,3.626-.975,6.123,6.123,0,0,0,2.615,3.409c1.291.722,2.694.678,4.72-.081,2.139-.8,5.4-2.005,5.714,4.384.218,4.459-1.868,10.1-11.152,14.3h.041l-.008.031h-.044l-.008.028" transform="translate(0.603 0)"/><path class="j" d="M1.145,0,.427,1.3.363,1.253A1.492,1.492,0,0,1,0,.8L.135.725Z" transform="translate(17.409 24.494)"/><path class="e" d="M22.954,21s-.023.124-.073.346a21.057,21.057,0,0,1-1.392,4.078c-1.31,2.811-3.637,5.908-7.518,5.817q-.951-.023-1.9,0c-3.883.091-6.209-3.005-7.518-5.817A21.119,21.119,0,0,1,3.16,21.343C3.11,21.121,3.087,21,3.087,21-.534,20.932.032,15.174.032,15.174V5.432a3.879,3.879,0,0,1,.545-1.99C4.767.8,13.8-2.9,25.628,3.746a3.914,3.914,0,0,1,.381,1.686v9.742S26.575,20.932,22.954,21Z" transform="translate(11.258 15.121)"/><path class="g" d="M29.128,7.232a5.159,5.159,0,0,1-4.167,1.859,6.315,6.315,0,0,1-2.375-.5c-.991-.409-4.942-3.108-7.019-3.942a2.33,2.33,0,0,0-1.717,0,20.317,20.317,0,0,0-2.264,1.153c-1.931,1.1-4.062,2.5-4.753,2.789a6.315,6.315,0,0,1-2.376.5A5.158,5.158,0,0,1,.291,7.232c-.947-1.55.722-2.743.722-2.743-.4,1.436.926,1.436.926,1.436A4.238,4.238,0,0,0,3.216,5.7a4.775,4.775,0,0,0,1.675-1C5.923,3.757,7.208,2.48,7.208,2.48,9.611-.488,12.114-.193,13.535.349A5.016,5.016,0,0,1,14.709.97s3.865-2.98,7.5,1.51c0,0,1.285,1.277,2.317,2.213a4.763,4.763,0,0,0,1.675,1,4.232,4.232,0,0,0,1.277.228s1.327,0,.927-1.436c0,0,1.669,1.193.722,2.743" transform="translate(9.569 31.214)"/><path class="g" d="M14.251,3.538,10.944,7.3A5.083,5.083,0,0,1,3.3,7.3L0,3.538l.262-.5.912.8c.768.766,2.24.567,3.159-.007a1.694,1.694,0,0,0,.851-1.477C5.222.325,4.175,0,4.175,0h5.9s-1.05.325-1.01,2.353A1.7,1.7,0,0,0,9.916,3.83c.921.574,2.366.871,3.134.106L14,2.943Z" transform="translate(17.153 39.845)"/></g></svg>