<svg xmlns="http://www.w3.org/2000/svg" xmlns:xlink="http://www.w3.org/1999/xlink" width="247.529" height="36.941" viewBox="0 0 247.529 36.941"><defs><style>.a{fill:url(#a);}.b{fill:url(#b);}.c{fill:url(#c);}.d{fill:url(#d);}.e{fill:url(#e);}.f{fill:url(#f);}.g{fill:url(#g);}.h{fill:url(#h);}.i{fill:url(#i);}.j{fill-rule:evenodd;fill:url(#j);}</style><linearGradient id="a" x1="6.23" y1="0.5" x2="-0.114" y2="0.5" gradientUnits="objectBoundingBox"><stop offset="0" stop-color="#029cdc"/><stop offset="1" stop-color="#0536a0"/></linearGradient><linearGradient id="b" x1="5.899" y1="0.5" x2="-2.933" y2="0.5" xlink:href="#a"/><linearGradient id="c" x1="21.716" y1="0.5" x2="-18.997" y2="0.5" xlink:href="#a"/><linearGradient id="d" x1="4.939" y1="0.5" x2="-5.097" y2="0.5" xlink:href="#a"/><linearGradient id="e" x1="4.198" y1="0.5" x2="-6.923" y2="0.5" xlink:href="#a"/><linearGradient id="f" x1="2.554" y1="0.5" x2="-6.383" y2="0.5" xlink:href="#a"/><linearGradient id="g" x1="1.276" y1="0.5" x2="-7.086" y2="0.5" xlink:href="#a"/><linearGradient id="h" x1="0.893" y1="0.191" x2="0.107" y2="0.809" xlink:href="#a"/><linearGradient id="i" x1="0" y1="0.5" x2="1" y2="0.5" xlink:href="#a"/><linearGradient id="j" x1="0" y1="0.5" x2="1" y2="0.5" xlink:href="#a"/></defs><g transform="translate(-25.679 -186.11)"><path class="a" d="M65.252,229.133H59.039v-20.25l-10.93,19.23a2.687,2.687,0,0,1-1.126,1.115,3.291,3.291,0,0,1-1.554.379,3.108,3.108,0,0,1-1.5-.379,2.729,2.729,0,0,1-1.1-1.115l-10.978-19.23v20.25H25.679v-31.37a3.1,3.1,0,0,1,2.276-3.019,3.284,3.284,0,0,1,1.956.13,2.889,2.889,0,0,1,1.484,1.268l14.035,24.4,14.037-24.386a3.031,3.031,0,0,1,1.5-1.28,3.207,3.207,0,0,1,2-.118A3.089,3.089,0,0,1,64.6,195.87a3.019,3.019,0,0,1,.639,1.9Z" transform="translate(0 -6.555)"/><path class="b" d="M433.58,213.924a9.087,9.087,0,0,1-.2,1.858,9.465,9.465,0,0,1-.627,1.932,8.968,8.968,0,0,1-1.1,1.837,7.5,7.5,0,0,1-1.626,1.554,8.178,8.178,0,0,1-2.218,1.08,9.353,9.353,0,0,1-2.845.4H413.83a9.086,9.086,0,0,1-1.858-.2,9.371,9.371,0,0,1-1.932-.627,9.057,9.057,0,0,1-1.839-1.1,7.55,7.55,0,0,1-1.551-1.626,8.154,8.154,0,0,1-1.08-2.23,9.391,9.391,0,0,1-.4-2.857V186.11h6.164v27.814a2.388,2.388,0,0,0,.711,1.814,2.483,2.483,0,0,0,1.779.676h11.12a2.383,2.383,0,0,0,1.814-.7,2.515,2.515,0,0,0,.653-1.8v-8.338a2.383,2.383,0,0,0-.7-1.814,2.485,2.485,0,0,0-1.779-.653h-11.1v-6.164h11.12a9.086,9.086,0,0,1,1.858.2,9.564,9.564,0,0,1,1.932.627,9.058,9.058,0,0,1,1.839,1.1,7.248,7.248,0,0,1,1.54,1.626,8.315,8.315,0,0,1,1.068,2.216,9.353,9.353,0,0,1,.4,2.845Z" transform="translate(-291.352)"/><path class="c" d="M556.746,191.684H550.58V186.11h6.166Zm0,30.889H550.58V196.947h6.166Z" transform="translate(-402.994)"/><path class="d" d="M620.213,211.295H609.451v19.467h-6.238V211.295H595.2v-6.164h8.013V196.77h6.238v8.361h10.762Z" transform="translate(-437.251 -8.184)"/><path class="e" d="M741.709,238.972H727.837a2.606,2.606,0,0,0-1.9.629,2.459,2.459,0,0,0-.641,1.837v17h-6.164v-17a9.291,9.291,0,0,1,.4-2.845,8.129,8.129,0,0,1,1.08-2.216,7.466,7.466,0,0,1,1.554-1.626,8.968,8.968,0,0,1,1.837-1.1,9.474,9.474,0,0,1,1.944-.627,9.153,9.153,0,0,1,1.837-.2h13.919Z" transform="translate(-532.403 -35.862)"/><path class="f" d="M846.28,249.912a9.49,9.49,0,0,1-.451,2.764,8.251,8.251,0,0,1-1.456,2.75,8.166,8.166,0,0,1-2.634,2.123,8.376,8.376,0,0,1-3.948.852h-11.12a9.551,9.551,0,0,1-2.761-.451,8.215,8.215,0,0,1-2.745-1.459,8.129,8.129,0,0,1-2.123-2.631,8.377,8.377,0,0,1-.852-3.948,9.667,9.667,0,0,1,.448-2.773,8.292,8.292,0,0,1,1.459-2.764,8.127,8.127,0,0,1,2.634-2.12,8.432,8.432,0,0,1,3.948-.855h11.115v5.88H826.672a2.473,2.473,0,0,0-1.944.771,2.766,2.766,0,0,0-.7,1.909,2.339,2.339,0,0,0,.794,1.884,2.817,2.817,0,0,0,1.886.676h11.083a2.5,2.5,0,0,0,1.944-.757,2.726,2.726,0,0,0,.7-1.9v-8.607a2.522,2.522,0,0,0-.748-1.921,2.622,2.622,0,0,0-1.893-.708h-13.54v-5.86h13.54a9.567,9.567,0,0,1,2.761.451,8.258,8.258,0,0,1,2.75,1.461,8.13,8.13,0,0,1,2.123,2.631,8.414,8.414,0,0,1,.852,3.948Z" transform="translate(-608.453 -35.823)"/><path class="g" d="M968.384,222.593H962.22V186.13h6.164Zm23.852,0h-8.891l-12.425-12a2.859,2.859,0,0,1-.971-2.371,3.2,3.2,0,0,1,.348-1.245,2.875,2.875,0,0,1,.818-.982l11.262-9.081h9.863L977.729,208.6Z" transform="translate(-719.032 -0.015)"/><path class="h" d="M239.306,226.671a17.864,17.864,0,1,1,11-3.82,17.864,17.864,0,0,1-11,3.82Zm-.049-32.261a14.4,14.4,0,1,0,11.338,5.5,14.4,14.4,0,0,0-11.338-5.5Z" transform="translate(-150.267 -3.708)"/><g transform="translate(91.684 199.366)"><path class="i" d="M314.281,243.941a2.578,2.578,0,1,0-3.647,3.644,6.32,6.32,0,0,1,1.821,3.85,6.319,6.319,0,0,1,1.825-3.851A2.578,2.578,0,0,0,314.281,243.941Zm-1.818,2.854a1.029,1.029,0,1,1,.731-.3A1.031,1.031,0,0,1,312.463,246.8Z" transform="translate(-309.88 -243.185)"/></g><path class="j" d="M281.531,235.809v2.185h-10.07V224.868h11.271v-1.1a1.6,1.6,0,0,0-1.6-1.6h-9.267a1.6,1.6,0,0,0-1.6,1.6v17.718a1.6,1.6,0,0,0,1.6,1.6h9.267a1.6,1.6,0,0,0,1.6-1.6v-5.674Zm-5.023,5.741a1.024,1.024,0,1,1,1.022-1.024,1.024,1.024,0,0,1-1.022,1.024Z" transform="translate(-187.778 -27.678)"/></g></svg>